<svg xmlns="http://www.w3.org/2000/svg" viewBox="0 0 900 1200"><rect width="900" height="1200" fill="#f2d9c2"/><text x="450" y="190" text-anchor="middle" fill="#5c3c3d" font-family="Georgia" font-size="54">Say their name</text><g fill="#ae746c"><rect x="180" y="520" width="10" height="120" rx="5"/><rect x="215" y="470" width="10" height="220" rx="5"/><rect x="250" y="540" width="10" height="80" rx="5"/><rect x="285" y="420" width="10" height="320" rx="5"/><rect x="320" y="505" width="10" height="150" rx="5"/><rect x="355" y="390" width="10" height="380" rx="5"/><rect x="390" y="470" width="10" height="220" rx="5"/><rect x="425" y="340" width="10" height="480" rx="5"/><rect x="460" y="430" width="10" height="300" rx="5"/><rect x="495" y="370" width="10" height="420" rx="5"/><rect x="530" y="500" width="10" height="160" rx="5"/><rect x="565" y="430" width="10" height="300" rx="5"/><rect x="600" y="520" width="10" height="120" rx="5"/><rect x="635" y="475" width="10" height="210" rx="5"/><rect x="670" y="535" width="10" height="90" rx="5"/><rect x="705" y="500" width="10" height="160" rx="5"/></g><circle cx="450" cy="930" r="76" fill="#9e655d"/><circle cx="450" cy="930" r="24" fill="#f8e7d8"/></svg>
